<svg viewBox="0 0 790.53 106.78" xmlns="http://www.w3.org/2000/svg">
<defs>
<style>
      .cls-1 {
        fill: #251900;
      }

      .cls-2 {
        fill: #d02c2e;
      }

      .cls-3 {
        fill: #fff;
      }
    </style>
</defs>
<g data-name="Ebene 2" id="Ebene_2">
<g data-name="Ebene 1" id="Ebene_1-2">
<g>
<path class="cls-1" d="M698.93,106.78c10.6,0,21.89-5.7,21.89-18.81,0-20.52-29.41-15.51-29.41-24.06,0-2.62,2.73-4.78,7.18-4.78,6.15,0,9.23,3.64,11.17,7.18l10.6-5.82c-4.21-7.63-11.63-12.19-21.31-12.19-10.84,0-20.64,5.58-20.64,16.41,0,20.86,29,14.59,29,24.06,0,3-2.74,6.61-9.12,6.61-7.53,0-10.49-5.13-12-9.24l-10.95,4.91c2.74,8.55,11.74,15.73,23.6,15.73m-53.89,0c10.61,0,21.89-5.7,21.89-18.81,0-20.52-29.41-15.51-29.41-24.06,0-2.62,2.74-4.78,7.18-4.78,6.16,0,9.24,3.64,11.17,7.18l10.61-5.82c-4.22-7.63-11.63-12.19-21.32-12.19-10.83,0-20.64,5.58-20.64,16.41,0,20.86,29,14.59,29,24.06,0,3-2.74,6.61-9.12,6.61-7.52,0-10.49-5.13-12-9.24l-10.94,4.91c2.73,8.55,11.74,15.73,23.59,15.73m-48.39-1.14h13.68V49.44H596.65Zm-.34-66.81h14.36V26.18H596.31Zm-73.63,66.81H535l11.06-36.82,11.06,36.82h12.31l17.33-56.2H572.16l-9.7,35.11-10.6-35.11H540.12l-10.6,35.22-9.58-35.22H505.35Zm-45.23,1.14c10.61,0,21.89-5.7,21.89-18.81,0-20.52-29.41-15.51-29.41-24.06,0-2.62,2.74-4.78,7.18-4.78,6.16,0,9.24,3.64,11.18,7.18l10.6-5.82c-4.22-7.63-11.63-12.19-21.32-12.19-10.83,0-20.64,5.58-20.64,16.41,0,20.86,29,14.59,29,24.06,0,3-2.73,6.61-9.12,6.61-7.52,0-10.49-5.13-12-9.24l-10.94,4.91c2.73,8.55,11.74,15.73,23.59,15.73M426,105.64h13.8V90.82H426ZM421,48.3A15.75,15.75,0,0,0,406,59V49.44H392.2v56.2h13.68V77.37c0-10.61,4.1-15.74,12.43-15.74a12.13,12.13,0,0,1,6.84,1.94l6.61-12.08A19.2,19.2,0,0,0,421,48.3M340.45,71.21c.79-5.59,4.67-11.51,13-11.51,7.18,0,12.66,4.33,12.88,11.51Zm39,5.59c0-15.62-8.43-28.5-25.87-28.5-18.7,0-26.68,14.82-26.68,29.52,0,15.05,8.21,29,27.59,29,9.46,0,16.87-3.31,23-10.15L368,88.31a16.82,16.82,0,0,1-13.45,6c-8.89,0-13.45-4.9-14-12.31h38.53a41.36,41.36,0,0,0,.34-5.24m-89.78,28.84h11.28l22.92-56.2H309l-13.8,38.41L281.67,49.44H266.73ZM235.82,94.81c-10.38,0-14.48-8.21-14.48-17.33s4.1-17.21,14.48-17.21,14.48,8,14.48,17.21-4.11,17.33-14.48,17.33m0,12c17.33,0,28.16-13.45,28.16-29.3S253.15,48.3,235.82,48.3s-28.16,13.22-28.16,29.18,10.72,29.3,28.16,29.3m-59.5,0c11.17,0,19.84-6.16,23.6-16.65l-12.43-4.78c-1.48,5.81-5.81,9.46-11.28,9.46-9.58,0-13.11-8.21-13.11-17.1s3.65-17.44,13.11-17.44c5.58,0,9.8,3.76,11.28,9.69l13-5.13c-4.33-11.18-13.11-16.53-24.28-16.53-18.36,0-27.13,14.59-27.13,29.41s8.89,29.07,27.24,29.07m-57.76,0c10.6,0,21.89-5.7,21.89-18.81,0-20.52-29.42-15.51-29.42-24.06,0-2.62,2.74-4.78,7.19-4.78,6.15,0,9.23,3.64,11.17,7.18L140,60.49c-4.22-7.63-11.63-12.19-21.32-12.19C107.84,48.3,98,53.88,98,64.71,98,85.57,127,79.3,127,88.77c0,3-2.73,6.61-9.11,6.61-7.53,0-10.49-5.13-12-9.24L95,91.05c2.74,8.55,11.74,15.73,23.6,15.73m-48.39-1.14H83.85V49.44H70.17Zm-.34-66.81H84.19V26.18H69.83ZM27,94.12c-9.12,0-13.34-6.15-13.34-16.53S18,60.72,27.13,60.72c9.81,0,14,7.53,14,16.87S36.94,94.12,27,94.12M39.9,26.18v29c-3.53-4.22-9.8-6.84-16.19-6.84C9.92,48.3,0,59.13,0,77.48c0,16.87,8.44,29.3,23.71,29.3,6,0,12.31-1.94,16.19-6.73v5.59H53.58V26.18Z"></path>
<rect class="cls-2" height="48.96" transform="translate(12.9 171.98) rotate(-13)" width="48.96" x="736.68" y="4.88"></rect>
<polygon class="cls-3" points="782.42 30.73 768.51 33.95 771.72 47.86 759.79 50.62 756.58 36.7 742.66 39.91 739.91 27.99 753.83 24.77 750.61 10.86 762.54 8.11 765.75 22.02 779.67 18.81 782.42 30.73"></polygon>
</g>
</g>
</g>
</svg>